<?xml version="1.0" encoding="UTF-8" standalone="no"?><!DOCTYPE svg PUBLIC "-//W3C//DTD SVG 1.1//EN" "http://www.w3.org/Graphics/SVG/1.1/DTD/svg11.dtd"><svg xmlns="http://www.w3.org/2000/svg" xmlns:xlink="http://www.w3.org/1999/xlink" xmlns:ev="http://www.w3.org/2001/xml-events" version="1.1" width="503" height="938" viewBox="0 0 503 938"><defs><marker id="marker-#333333" markerWidth="3" markerHeight="3" refX="0.2" refY="1.5" orient="auto"><path d="M0,0 L0,3 L3,1.5 L0,0" fill="#333333"></path></marker><marker id="marker-#333333" markerWidth="3" markerHeight="3" refX="0.2" refY="1.5" orient="auto"><path d="M0,0 L0,3 L3,1.5 L0,0" fill="#333333"></path></marker><marker id="marker-#333333" markerWidth="3" markerHeight="3" refX="0.2" refY="1.5" orient="auto"><path d="M0,0 L0,3 L3,1.5 L0,0" fill="#333333"></path></marker><marker id="marker-#333333" markerWidth="3" markerHeight="3" refX="0.2" refY="1.5" orient="auto"><path d="M0,0 L0,3 L3,1.5 L0,0" fill="#333333"></path></marker><marker id="marker-#333333" markerWidth="3" markerHeight="3" refX="0.2" refY="1.5" orient="auto"><path d="M0,0 L0,3 L3,1.5 L0,0" fill="#333333"></path></marker><marker id="marker-#333333" markerWidth="3" markerHeight="3" refX="0.2" refY="1.5" orient="auto"><path d="M0,0 L0,3 L3,1.5 L0,0" fill="#333333"></path></marker><marker id="marker-#333333" markerWidth="3" markerHeight="3" refX="0.2" refY="1.5" orient="auto"><path d="M0,0 L0,3 L3,1.5 L0,0" fill="#333333"></path></marker><marker id="marker-#333333" markerWidth="3" markerHeight="3" refX="0.2" refY="1.5" orient="auto"><path d="M0,0 L0,3 L3,1.5 L0,0" fill="#333333"></path></marker><marker id="marker-#333333" markerWidth="3" markerHeight="3" refX="0.2" refY="1.5" orient="auto"><path d="M0,0 L0,3 L3,1.5 L0,0" fill="#333333"></path></marker><marker id="marker-#333333" markerWidth="3" markerHeight="3" refX="0.2" refY="1.5" orient="auto"><path d="M0,0 L0,3 L3,1.5 L0,0" fill="#333333"></path></marker><marker id="marker-#333333" markerWidth="3" markerHeight="3" refX="0.2" refY="1.5" orient="auto"><path d="M0,0 L0,3 L3,1.5 L0,0" fill="#333333"></path></marker><marker id="marker-#333333" markerWidth="3" markerHeight="3" refX="0.2" refY="1.5" orient="auto"><path d="M0,0 L0,3 L3,1.5 L0,0" fill="#333333"></path></marker><marker id="marker-#333333" markerWidth="3" markerHeight="3" refX="0.2" refY="1.5" orient="auto"><path d="M0,0 L0,3 L3,1.5 L0,0" fill="#333333"></path></marker><marker id="marker-#333333" markerWidth="3" markerHeight="3" refX="0.2" refY="1.5" orient="auto"><path d="M0,0 L0,3 L3,1.5 L0,0" fill="#333333"></path></marker><marker id="marker-#333333" markerWidth="3" markerHeight="3" refX="0.2" refY="1.5" orient="auto"><path d="M0,0 L0,3 L3,1.5 L0,0" fill="#333333"></path></marker><marker id="marker-#333333" markerWidth="3" markerHeight="3" refX="0.2" refY="1.5" orient="auto"><path d="M0,0 L0,3 L3,1.5 L0,0" fill="#333333"></path></marker></defs><g><rect width="501.3333309491475" height="936.9999952316284" stroke="#000" stroke-opacity="0.5" stroke-dasharray="10 5" fill-opacity="0" transform="translate(0.5 0.5)"></rect><g transform="translate(22 37)"><rect width="457.3333309491475" height="872.9999952316284" stroke="#000" stroke-opacity="0.5" stroke-dasharray="10 5" fill-opacity="0" transform="translate(0.5 0.5)"></rect><path stroke="#333333" stroke-width="3px" opacity="0.8" marker-end="url(#marker-#333333)" fill="none" d="M 163.66666607062024 851.9999952316284 L 163.66666607062024 866.4999952316284 "></path><path stroke="#333333" stroke-width="3px" opacity="0.8" marker-end="url(#marker-#333333)" fill="none" d="M 413.8333309491475 -2.5 L 413.8333309491475 774.9999958276749 L 172.3333327372869 774.9999958276749 L 172.3333327372869 799.9999952316284 "></path><path stroke="#333333" stroke-width="3px" opacity="0.8" marker-end="url(#marker-#333333)" fill="none" d="M 154.99999940395355 739.9999964237213 L 154.99999940395355 799.9999952316284 "></path><path stroke="#333333" stroke-width="3px" opacity="0.8" marker-end="url(#marker-#333333)" fill="none" d="M 154.99999940395355 645.4999964237213 L 154.99999940395355 687.9999964237213 "></path><path stroke="#333333" stroke-width="3px" opacity="0.8" marker-end="url(#marker-#333333)" fill="none" d="M 229.9999988079071 69 L 229.9999988079071 111.5 "></path><text x="5" y="16" font-family="sans-serif" font-size="14" opacity="0.5">main</text><rect x="411.3333309491475" y="-5" width="5" height="5" stroke="#000" fill="white"></rect><rect x="161.16666607062024" y="873.9999952316284" width="5" height="5" stroke="#000" fill="black"></rect><g transform="translate(140.16666607062024 814.9999952316284)"><rect width="47" height="32" stroke="#000" stroke-width="3px" fill="#fff"></rect><text x="10" y="24" font-family="sans-serif" font-size="14">print</text><rect x="12.333333333333329" y="-5" width="5" height="5" stroke="#000" fill="white"></rect><rect x="29.666666666666664" y="-5" width="5" height="5" stroke="#000" fill="white"></rect><rect x="21" y="32" width="5" height="5" stroke="#000" fill="black"></rect></g><g transform="translate(114.99999940395355 702.9999964237213)"><rect width="80" height="32" stroke="#000" stroke-width="3px" fill="#fff"></rect><text x="10" y="24" font-family="sans-serif" font-size="14">numToStr</text><rect x="37.5" y="-5" width="5" height="5" stroke="#000" fill="white"></rect><rect x="37.5" y="32" width="5" height="5" stroke="#000" fill="black"></rect></g><g transform="translate(191.9999988079071 32)"><rect width="76" height="32" stroke="#000" stroke-width="3px" fill="#fff"></rect><text x="10" y="24" font-family="sans-serif" font-size="14">std/const</text><rect x="35.5" y="32" width="5" height="5" stroke="#000" fill="black"></rect></g><g transform="translate(22 124)"><rect width="375.83333154519397" height="517.9999964237213" stroke="#000" stroke-opacity="0.5" stroke-dasharray="10 5" fill-opacity="0" transform="translate(0.5 0.5)"></rect><path stroke="#333333" stroke-width="3px" opacity="0.8" marker-end="url(#marker-#333333)" fill="none" d="M 132.99999940395355 496.9999964237213 L 132.99999940395355 511.4999964237213 "></path><path stroke="#333333" stroke-width="3px" opacity="0.8" marker-end="url(#marker-#333333)" fill="none" d="M 225.83333214124045 384.9999976158142 L 225.83333214124045 419.99999701976776 L 140.99999940395355 419.99999701976776 L 140.99999940395355 444.9999964237213 "></path><path stroke="#333333" stroke-width="3px" opacity="0.8" marker-end="url(#marker-#333333)" fill="none" d="M 282.99999821186066 272.9999988079071 L 282.99999821186066 307.99999821186066 L 243.6666654745738 307.99999821186066 L 243.6666654745738 332.9999976158142 "></path><path stroke="#333333" stroke-width="3px" opacity="0.8" marker-end="url(#marker-#333333)" fill="none" d="M 282.99999821186066 180.9999988079071 L 282.99999821186066 220.9999988079071 "></path><path stroke="#333333" stroke-width="3px" opacity="0.8" marker-end="url(#marker-#333333)" fill="none" d="M 296.83333154519397 69 L 296.83333154519397 128.9999988079071 "></path><path stroke="#333333" stroke-width="3px" opacity="0.8" marker-end="url(#marker-#333333)" fill="none" d="M 207.9999988079071 -2.5 L 207.9999988079071 103.99999940395355 L 269.1666648785273 103.99999940395355 L 269.1666648785273 128.9999988079071 "></path><path stroke="#333333" stroke-width="3px" opacity="0.8" marker-end="url(#marker-#333333)" fill="none" d="M 207.9999988079071 -2.5 L 207.9999988079071 332.9999976158142 "></path><path stroke="#333333" stroke-width="3px" opacity="0.8" marker-end="url(#marker-#333333)" fill="none" d="M 60 384.9999976158142 L 60 419.99999701976776 L 124.99999940395355 419.99999701976776 L 124.99999940395355 444.9999964237213 "></path><path stroke="#333333" stroke-width="3px" opacity="0.8" marker-end="url(#marker-#333333)" fill="none" d="M 132.99999940395355 180.9999988079071 L 132.99999940395355 444.9999964237213 "></path><path stroke="#333333" stroke-width="3px" opacity="0.8" marker-end="url(#marker-#333333)" fill="none" d="M 118.8333327372869 69 L 118.8333327372869 128.9999988079071 "></path><path stroke="#333333" stroke-width="3px" opacity="0.8" marker-end="url(#marker-#333333)" fill="none" d="M 207.9999988079071 -2.5 L 207.9999988079071 103.99999940395355 L 147.16666607062024 103.99999940395355 L 147.16666607062024 128.9999988079071 "></path><text x="5" y="16" font-family="sans-serif" font-size="14" opacity="0.5">fac</text><rect x="205.4999988079071" y="-5" width="5" height="5" stroke="#000" fill="white"></rect><rect x="130.49999940395355" y="518.9999964237213" width="5" height="5" stroke="#000" fill="black"></rect><g transform="translate(92.99999940395355 143.9999988079071)"><rect width="80" height="32" stroke="#000" stroke-width="3px" fill="#fff"></rect><text x="10" y="24" font-family="sans-serif" font-size="14">math/less</text><rect x="51.66666666666667" y="-5" width="5" height="5" stroke="#000" fill="white"></rect><rect x="23.33333333333334" y="-5" width="5" height="5" stroke="#000" fill="white"></rect><rect x="37.5" y="32" width="5" height="5" stroke="#000" fill="black"></rect></g><g transform="translate(174.83333214124045 347.9999976158142)"><rect width="102" height="32" stroke="#000" stroke-width="3px" fill="#fff"></rect><text x="10" y="24" font-family="sans-serif" font-size="14">math/multiply</text><rect x="30.666666666666657" y="-5" width="5" height="5" stroke="#000" fill="white"></rect><rect x="66.33333333333333" y="-5" width="5" height="5" stroke="#000" fill="white"></rect><rect x="48.5" y="32" width="5" height="5" stroke="#000" fill="black"></rect></g><g transform="translate(243.99999821186066 143.9999988079071)"><rect width="78" height="32" stroke="#000" stroke-width="3px" fill="#fff"></rect><text x="10" y="24" font-family="sans-serif" font-size="14">math/add</text><rect x="22.66666666666666" y="-5" width="5" height="5" stroke="#000" fill="white"></rect><rect x="50.33333333333333" y="-5" width="5" height="5" stroke="#000" fill="white"></rect><rect x="36.5" y="32" width="5" height="5" stroke="#000" fill="black"></rect></g><g transform="translate(119.49999940395355 459.9999964237213)"><rect width="27" height="32" stroke="#000" stroke-width="3px" fill="#fff"></rect><text x="10" y="24" font-family="sans-serif" font-size="14">if</text><rect x="11" y="-5" width="5" height="5" stroke="#000" fill="white"></rect><rect x="3" y="-5" width="5" height="5" stroke="#000" fill="white"></rect><rect x="19" y="-5" width="5" height="5" stroke="#000" fill="white"></rect><rect x="11" y="32" width="5" height="5" stroke="#000" fill="black"></rect></g><g transform="translate(80.8333327372869 32)"><rect width="76" height="32" stroke="#000" stroke-width="3px" fill="#fff"></rect><text x="10" y="24" font-family="sans-serif" font-size="14">std/const</text><rect x="35.5" y="32" width="5" height="5" stroke="#000" fill="black"></rect></g><g transform="translate(22 347.9999976158142)"><rect width="76" height="32" stroke="#000" stroke-width="3px" fill="#fff"></rect><text x="10" y="24" font-family="sans-serif" font-size="14">std/const</text><rect x="35.5" y="32" width="5" height="5" stroke="#000" fill="black"></rect></g><g transform="translate(263.49999821186066 235.9999988079071)"><rect width="39" height="32" stroke="#000" stroke-width="3px" fill="#fff"></rect><text x="10" y="24" font-family="sans-serif" font-size="14">fac</text><rect x="17" y="-5" width="5" height="5" stroke="#000" fill="white"></rect><rect x="17" y="32" width="5" height="5" stroke="#000" fill="black"></rect></g><g transform="translate(258.83333154519397 32)"><rect width="76" height="32" stroke="#000" stroke-width="3px" fill="#fff"></rect><text x="10" y="24" font-family="sans-serif" font-size="14">std/const</text><rect x="35.5" y="32" width="5" height="5" stroke="#000" fill="black"></rect></g></g></g></g></svg>
