<?xml version="1.0" encoding="UTF-8" standalone="no"?><!DOCTYPE svg PUBLIC "-//W3C//DTD SVG 1.1//EN" "http://www.w3.org/Graphics/SVG/1.1/DTD/svg11.dtd"><svg xmlns="http://www.w3.org/2000/svg" xmlns:xlink="http://www.w3.org/1999/xlink" xmlns:ev="http://www.w3.org/2001/xml-events" version="1.1" width="728" height="1398" viewBox="0 0 728 1398"><defs><marker id="marker-#333333" markerWidth="3" markerHeight="3" refX="0.2" refY="1.5" orient="auto"><path d="M0,0 L0,3 L3,1.5 L0,0" fill="#333333"></path></marker><marker id="marker-#333333" markerWidth="3" markerHeight="3" refX="0.2" refY="1.5" orient="auto"><path d="M0,0 L0,3 L3,1.5 L0,0" fill="#333333"></path></marker><marker id="marker-#333333" markerWidth="3" markerHeight="3" refX="0.2" refY="1.5" orient="auto"><path d="M0,0 L0,3 L3,1.5 L0,0" fill="#333333"></path></marker><marker id="marker-#333333" markerWidth="3" markerHeight="3" refX="0.2" refY="1.5" orient="auto"><path d="M0,0 L0,3 L3,1.5 L0,0" fill="#333333"></path></marker><marker id="marker-#333333" markerWidth="3" markerHeight="3" refX="0.2" refY="1.5" orient="auto"><path d="M0,0 L0,3 L3,1.5 L0,0" fill="#333333"></path></marker><marker id="marker-#333333" markerWidth="3" markerHeight="3" refX="0.2" refY="1.5" orient="auto"><path d="M0,0 L0,3 L3,1.5 L0,0" fill="#333333"></path></marker><marker id="marker-#333333" markerWidth="3" markerHeight="3" refX="0.2" refY="1.5" orient="auto"><path d="M0,0 L0,3 L3,1.5 L0,0" fill="#333333"></path></marker><marker id="marker-#333333" markerWidth="3" markerHeight="3" refX="0.2" refY="1.5" orient="auto"><path d="M0,0 L0,3 L3,1.5 L0,0" fill="#333333"></path></marker><marker id="marker-#333333" markerWidth="3" markerHeight="3" refX="0.2" refY="1.5" orient="auto"><path d="M0,0 L0,3 L3,1.5 L0,0" fill="#333333"></path></marker><marker id="marker-#333333" markerWidth="3" markerHeight="3" refX="0.2" refY="1.5" orient="auto"><path d="M0,0 L0,3 L3,1.5 L0,0" fill="#333333"></path></marker><marker id="marker-#333333" markerWidth="3" markerHeight="3" refX="0.2" refY="1.5" orient="auto"><path d="M0,0 L0,3 L3,1.5 L0,0" fill="#333333"></path></marker><marker id="marker-#333333" markerWidth="3" markerHeight="3" refX="0.2" refY="1.5" orient="auto"><path d="M0,0 L0,3 L3,1.5 L0,0" fill="#333333"></path></marker><marker id="marker-#333333" markerWidth="3" markerHeight="3" refX="0.2" refY="1.5" orient="auto"><path d="M0,0 L0,3 L3,1.5 L0,0" fill="#333333"></path></marker><marker id="marker-#333333" markerWidth="3" markerHeight="3" refX="0.2" refY="1.5" orient="auto"><path d="M0,0 L0,3 L3,1.5 L0,0" fill="#333333"></path></marker><marker id="marker-#333333" markerWidth="3" markerHeight="3" refX="0.2" refY="1.5" orient="auto"><path d="M0,0 L0,3 L3,1.5 L0,0" fill="#333333"></path></marker><marker id="marker-#333333" markerWidth="3" markerHeight="3" refX="0.2" refY="1.5" orient="auto"><path d="M0,0 L0,3 L3,1.5 L0,0" fill="#333333"></path></marker><marker id="marker-#333333" markerWidth="3" markerHeight="3" refX="0.2" refY="1.5" orient="auto"><path d="M0,0 L0,3 L3,1.5 L0,0" fill="#333333"></path></marker><marker id="marker-#333333" markerWidth="3" markerHeight="3" refX="0.2" refY="1.5" orient="auto"><path d="M0,0 L0,3 L3,1.5 L0,0" fill="#333333"></path></marker><marker id="marker-#333333" markerWidth="3" markerHeight="3" refX="0.2" refY="1.5" orient="auto"><path d="M0,0 L0,3 L3,1.5 L0,0" fill="#333333"></path></marker><marker id="marker-#333333" markerWidth="3" markerHeight="3" refX="0.2" refY="1.5" orient="auto"><path d="M0,0 L0,3 L3,1.5 L0,0" fill="#333333"></path></marker><marker id="marker-#333333" markerWidth="3" markerHeight="3" refX="0.2" refY="1.5" orient="auto"><path d="M0,0 L0,3 L3,1.5 L0,0" fill="#333333"></path></marker><marker id="marker-#333333" markerWidth="3" markerHeight="3" refX="0.2" refY="1.5" orient="auto"><path d="M0,0 L0,3 L3,1.5 L0,0" fill="#333333"></path></marker></defs><g><rect width="726.9999970197678" height="1396.9999928474426" stroke="#000" stroke-opacity="0.5" stroke-dasharray="10 5" fill-opacity="0" transform="translate(0.5 0.5)"></rect><g transform="translate(22 37)"><rect width="682.9999970197678" height="1332.9999928474426" stroke="#000" stroke-opacity="0.5" stroke-dasharray="10 5" fill-opacity="0" transform="translate(0.5 0.5)"></rect><path stroke="#333333" stroke-width="3px" opacity="0.8" marker-end="url(#marker-#333333)" fill="none" d="M 251.66666607062024 1311.9999928474426 L 251.66666607062024 1326.4999928474426 "></path><path stroke="#333333" stroke-width="3px" opacity="0.8" marker-end="url(#marker-#333333)" fill="none" d="M 639.4999970197678 -2.5 L 639.4999970197678 1234.999993443489 L 260.3333327372869 1234.999993443489 L 260.3333327372869 1259.9999928474426 "></path><path stroke="#333333" stroke-width="3px" opacity="0.8" marker-end="url(#marker-#333333)" fill="none" d="M 242.99999940395355 1199.9999940395355 L 242.99999940395355 1259.9999928474426 "></path><path stroke="#333333" stroke-width="3px" opacity="0.8" marker-end="url(#marker-#333333)" fill="none" d="M 242.99999940395355 1105.4999940395355 L 242.99999940395355 1147.9999940395355 "></path><path stroke="#333333" stroke-width="3px" opacity="0.8" marker-end="url(#marker-#333333)" fill="none" d="M 317.9999988079071 69 L 317.9999988079071 111.5 "></path><text x="5" y="16" font-family="sans-serif" font-size="14" opacity="0.5">main</text><rect x="636.9999970197678" y="-5" width="5" height="5" stroke="#000" fill="white"></rect><rect x="249.16666607062024" y="1333.9999928474426" width="5" height="5" stroke="#000" fill="black"></rect><g transform="translate(228.16666607062024 1274.9999928474426)"><rect width="47" height="32" stroke="#000" stroke-width="3px" fill="#fff"></rect><text x="10" y="24" font-family="sans-serif" font-size="14">print</text><rect x="12.333333333333329" y="-5" width="5" height="5" stroke="#000" fill="white"></rect><rect x="29.666666666666664" y="-5" width="5" height="5" stroke="#000" fill="white"></rect><rect x="21" y="32" width="5" height="5" stroke="#000" fill="black"></rect></g><g transform="translate(202.99999940395355 1162.9999940395355)"><rect width="80" height="32" stroke="#000" stroke-width="3px" fill="#fff"></rect><text x="10" y="24" font-family="sans-serif" font-size="14">numToStr</text><rect x="37.5" y="-5" width="5" height="5" stroke="#000" fill="white"></rect><rect x="37.5" y="32" width="5" height="5" stroke="#000" fill="black"></rect></g><g transform="translate(279.9999988079071 32)"><rect width="76" height="32" stroke="#000" stroke-width="3px" fill="#fff"></rect><text x="10" y="24" font-family="sans-serif" font-size="14">std/const</text><rect x="35.5" y="32" width="5" height="5" stroke="#000" fill="black"></rect></g><g transform="translate(22 124)"><rect width="601.4999976158142" height="977.9999940395355" stroke="#000" stroke-opacity="0.5" stroke-dasharray="10 5" fill-opacity="0" transform="translate(0.5 0.5)"></rect><path stroke="#333333" stroke-width="3px" opacity="0.8" marker-end="url(#marker-#333333)" fill="none" d="M 220.99999940395355 956.9999940395355 L 220.99999940395355 971.4999940395355 "></path><path stroke="#333333" stroke-width="3px" opacity="0.8" marker-end="url(#marker-#333333)" fill="none" d="M 220.99999940395355 619.9999964237213 L 220.99999940395355 904.9999940395355 "></path><path stroke="#333333" stroke-width="3px" opacity="0.8" marker-end="url(#marker-#333333)" fill="none" d="M 403.9166645805041 769.666661898295 L 403.9166645805041 879.999994635582 L 238.74999940395355 879.999994635582 L 238.74999940395355 904.9999940395355 "></path><path stroke="#333333" stroke-width="3px" opacity="0.8" marker-end="url(#marker-#333333)" fill="none" d="M 104 844.9999952316284 L 104 879.999994635582 L 203.24999940395355 879.999994635582 L 203.24999940395355 904.9999940395355 "></path><path stroke="#333333" stroke-width="3px" opacity="0.8" marker-end="url(#marker-#333333)" fill="none" d="M 295.9999988079071 -2.5 L 295.9999988079071 654.9999958276749 L 382.74999791383743 654.9999958276749 L 382.74999791383743 717.666661898295 "></path><path stroke="#333333" stroke-width="3px" opacity="0.8" marker-end="url(#marker-#333333)" fill="none" d="M 425.0833312471708 619.9999964237213 L 425.0833312471708 717.666661898295 "></path><path stroke="#333333" stroke-width="3px" opacity="0.8" marker-end="url(#marker-#333333)" fill="none" d="M 295.9999988079071 -2.5 L 295.9999988079071 542.9999970197678 L 403.91666458050406 542.9999970197678 L 403.91666458050406 567.9999964237213 "></path><path stroke="#333333" stroke-width="3px" opacity="0.8" marker-end="url(#marker-#333333)" fill="none" d="M 446.24999791383743 507.9999976158142 L 446.24999791383743 567.9999964237213 "></path><path stroke="#333333" stroke-width="3px" opacity="0.8" marker-end="url(#marker-#333333)" fill="none" d="M 206.8333327372869 507.9999976158142 L 206.8333327372869 567.9999964237213 "></path><path stroke="#333333" stroke-width="3px" opacity="0.8" marker-end="url(#marker-#333333)" fill="none" d="M 295.9999988079071 -2.5 L 295.9999988079071 542.9999970197678 L 235.16666607062024 542.9999970197678 L 235.16666607062024 567.9999964237213 "></path><text x="5" y="16" font-family="sans-serif" font-size="14" opacity="0.5">fac</text><rect x="293.4999988079071" y="-5" width="5" height="5" stroke="#000" fill="white"></rect><rect x="218.49999940395355" y="978.9999940395355" width="5" height="5" stroke="#000" fill="black"></rect><g transform="translate(180.99999940395355 582.9999964237213)"><rect width="80" height="32" stroke="#000" stroke-width="3px" fill="#fff"></rect><text x="10" y="24" font-family="sans-serif" font-size="14">math/less</text><rect x="51.66666666666667" y="-5" width="5" height="5" stroke="#000" fill="white"></rect><rect x="23.33333333333334" y="-5" width="5" height="5" stroke="#000" fill="white"></rect><rect x="37.5" y="32" width="5" height="5" stroke="#000" fill="black"></rect></g><g transform="translate(168.8333327372869 470.9999976158142)"><rect width="76" height="32" stroke="#000" stroke-width="3px" fill="#fff"></rect><text x="10" y="24" font-family="sans-serif" font-size="14">std/const</text><rect x="35.5" y="32" width="5" height="5" stroke="#000" fill="black"></rect></g><g transform="translate(187.99999940395355 919.9999940395355)"><rect width="66" height="32" stroke="#000" stroke-width="3px" fill="#fff"></rect><text x="10" y="24" font-family="sans-serif" font-size="14">ifThunk</text><rect x="30.5" y="-5" width="5" height="5" stroke="#000" fill="white"></rect><rect x="12.75" y="-5" width="5" height="5" stroke="#000" fill="white"></rect><rect x="48.25" y="-5" width="5" height="5" stroke="#000" fill="white"></rect><rect x="30.5" y="32" width="5" height="5" stroke="#000" fill="black"></rect></g><g transform="translate(22 689.9999952316284)"><rect width="183" height="149" stroke="#000" stroke-opacity="0.5" stroke-dasharray="10 5" fill-opacity="0" transform="translate(0.5 0.5)"></rect><text x="5" y="16" font-family="sans-serif" font-size="14" opacity="0.5">functional/lambda</text><rect x="79.5" y="150" width="5" height="5" stroke="#000" fill="black"></rect><g transform="translate(22 32)"><rect width="139" height="90" stroke="#000" stroke-opacity="0.5" stroke-dasharray="10 5" fill-opacity="0" transform="translate(0.5 0.5)"></rect><path stroke="#333333" stroke-width="3px" opacity="0.8" marker-end="url(#marker-#333333)" fill="none" d="M 60 69 L 60 83.5 "></path><text x="5" y="16" font-family="sans-serif" font-size="14" opacity="0.5">#cj1e044uq000ci0g23w6u2e47</text><rect x="57.5" y="91" width="5" height="5" stroke="#000" fill="black"></rect><g transform="translate(22 32)"><rect width="76" height="32" stroke="#000" stroke-width="3px" fill="#fff"></rect><text x="10" y="24" font-family="sans-serif" font-size="14">std/const</text><rect x="35.5" y="32" width="5" height="5" stroke="#000" fill="black"></rect></g></g></g><g transform="translate(331.99999821186066 32)"><rect width="247.49999940395355" height="469.9999976158142" stroke="#000" stroke-opacity="0.5" stroke-dasharray="10 5" fill-opacity="0" transform="translate(0.5 0.5)"></rect><text x="5" y="16" font-family="sans-serif" font-size="14" opacity="0.5">functional/lambda</text><rect x="111.74999970197678" y="470.9999976158142" width="5" height="5" stroke="#000" fill="black"></rect><g transform="translate(22 37)"><rect width="203.49999940395355" height="405.9999976158142" stroke="#000" stroke-opacity="0.5" stroke-dasharray="10 5" fill-opacity="0" transform="translate(0.5 0.5)"></rect><path stroke="#333333" stroke-width="3px" opacity="0.8" marker-end="url(#marker-#333333)" fill="none" d="M 124.49999940395355 69 L 124.49999940395355 128.9999988079071 "></path><path stroke="#333333" stroke-width="3px" opacity="0.8" marker-end="url(#marker-#333333)" fill="none" d="M 110.66666607062022 180.9999988079071 L 110.66666607062022 220.9999988079071 "></path><path stroke="#333333" stroke-width="3px" opacity="0.8" marker-end="url(#marker-#333333)" fill="none" d="M 50.5 -2.5 L 50.5 103.99999940395355 L 96.83333273728688 103.99999940395355 L 96.83333273728688 128.9999988079071 "></path><path stroke="#333333" stroke-width="3px" opacity="0.8" marker-end="url(#marker-#333333)" fill="none" d="M 110.66666607062022 272.9999988079071 L 110.66666607062022 332.9999976158142 "></path><path stroke="#333333" stroke-width="3px" opacity="0.8" marker-end="url(#marker-#333333)" fill="none" d="M 92.8333327372869 384.9999976158142 L 92.83333273728687 399.4999976158142 "></path><path stroke="#333333" stroke-width="3px" opacity="0.8" marker-end="url(#marker-#333333)" fill="none" d="M 24.5 -2.5 L 24.5 307.99999821186066 L 74.99999940395355 307.99999821186066 L 74.99999940395355 332.9999976158142 "></path><text x="5" y="16" font-family="sans-serif" font-size="14" opacity="0.5">#cj1e045lu000ui0g2o00x0k5l</text><rect x="22" y="-5" width="5" height="5" stroke="#000" fill="white"></rect><rect x="90.3333327372869" y="406.9999976158142" width="5" height="5" stroke="#000" fill="black"></rect><rect x="48" y="-5" width="5" height="5" stroke="#000" fill="white"></rect><g transform="translate(41.833332737286895 347.9999976158142)"><rect width="102" height="32" stroke="#000" stroke-width="3px" fill="#fff"></rect><text x="10" y="24" font-family="sans-serif" font-size="14">math/multiply</text><rect x="30.666666666666657" y="-5" width="5" height="5" stroke="#000" fill="white"></rect><rect x="66.33333333333333" y="-5" width="5" height="5" stroke="#000" fill="white"></rect><rect x="48.5" y="32" width="5" height="5" stroke="#000" fill="black"></rect></g><g transform="translate(91.16666607062022 235.9999988079071)"><rect width="39" height="32" stroke="#000" stroke-width="3px" fill="#fff"></rect><text x="10" y="24" font-family="sans-serif" font-size="14">fac</text><rect x="17" y="-5" width="5" height="5" stroke="#000" fill="white"></rect><rect x="17" y="32" width="5" height="5" stroke="#000" fill="black"></rect></g><g transform="translate(71.66666607062022 143.9999988079071)"><rect width="78" height="32" stroke="#000" stroke-width="3px" fill="#fff"></rect><text x="10" y="24" font-family="sans-serif" font-size="14">math/add</text><rect x="22.66666666666666" y="-5" width="5" height="5" stroke="#000" fill="white"></rect><rect x="50.33333333333333" y="-5" width="5" height="5" stroke="#000" fill="white"></rect><rect x="36.5" y="32" width="5" height="5" stroke="#000" fill="black"></rect></g><g transform="translate(86.49999940395355 32)"><rect width="76" height="32" stroke="#000" stroke-width="3px" fill="#fff"></rect><text x="10" y="24" font-family="sans-serif" font-size="14">std/const</text><rect x="35.5" y="32" width="5" height="5" stroke="#000" fill="black"></rect></g></g></g><g transform="translate(364.0833312471708 582.9999964237213)"><rect width="122" height="32" stroke="#000" stroke-width="3px" fill="#fff"></rect><text x="10" y="24" font-family="sans-serif" font-size="14">functional/partial</text><rect x="79.66666666666666" y="-5" width="5" height="5" stroke="#000" fill="white"></rect><rect x="37.33333333333332" y="-5" width="5" height="5" stroke="#000" fill="white"></rect><rect x="58.5" y="32" width="5" height="5" stroke="#000" fill="black"></rect></g><g transform="translate(342.9166645805041 732.666661898295)"><rect width="122" height="32" stroke="#000" stroke-width="3px" fill="#fff"></rect><text x="10" y="24" font-family="sans-serif" font-size="14">functional/partial</text><rect x="79.66666666666666" y="-5" width="5" height="5" stroke="#000" fill="white"></rect><rect x="37.33333333333332" y="-5" width="5" height="5" stroke="#000" fill="white"></rect><rect x="58.5" y="32" width="5" height="5" stroke="#000" fill="black"></rect></g></g></g></g></svg>
